<?xml version="1.0" encoding="UTF-8"?>
<svg version="1.1" xmlns="http://www.w3.org/2000/svg" width="200" height="200">
<path d="M0 0 C2.10717773 -0.38818359 2.10717773 -0.38818359 4.68359375 -0.3984375 C5.61107422 -0.40230469 6.53855469 -0.40617187 7.49414062 -0.41015625 C8.46544922 -0.39855469 9.43675781 -0.38695312 10.4375 -0.375 C11.88866211 -0.39240234 11.88866211 -0.39240234 13.36914062 -0.41015625 C14.29791016 -0.40628906 15.22667969 -0.40242188 16.18359375 -0.3984375 C17.46061157 -0.39336182 17.46061157 -0.39336182 18.76342773 -0.38818359 C21.47387886 0.08224729 22.36390654 0.8227925 24 3 C24.36328125 5.41015625 24.36328125 5.41015625 24.3125 8.0625 C24.30863281 8.94035156 24.30476563 9.81820312 24.30078125 10.72265625 C24 13 24 13 22 15 C19.8359375 15.1953125 19.8359375 15.1953125 17.375 15.125 C16.55773437 15.10695313 15.74046875 15.08890625 14.8984375 15.0703125 C14.27195312 15.04710937 13.64546875 15.02390625 13 15 C13 15.66 13 16.32 13 17 C14.155 17.061875 15.31 17.12375 16.5 17.1875 C22.23772161 17.92883394 26.70031796 20.45554982 30.578125 24.74609375 C35.14325812 30.84605611 35.57775544 36.50050782 35 44 C33.91123106 50.5804716 30.28613295 54.07965852 25.3515625 58.3359375 C18.75445165 63.00432491 11.82227885 62.69176616 4 62 C-3.35508198 60.14360551 -8.21503979 54.3830414 -12.1640625 48.16796875 C-14.38437963 42.40966964 -14.14814383 34.96322415 -11.9375 29.2578125 C-8.73461241 24.08793416 -4.65027736 20.32102471 1 18 C3.73052507 17.38027332 6.18745317 17.15067215 9 17 C9 16.34 9 15.68 9 15 C8.06027344 15.03480469 8.06027344 15.03480469 7.1015625 15.0703125 C5.87566406 15.09738281 5.87566406 15.09738281 4.625 15.125 C3.81289062 15.14820313 3.00078125 15.17140625 2.1640625 15.1953125 C0 15 0 15 -2 13 C-2.265625 10.72265625 -2.265625 10.72265625 -2.25 8.0625 C-2.25515625 7.18722656 -2.2603125 6.31195313 -2.265625 5.41015625 C-2 3 -2 3 0 0 Z M1 3 C1 6.3 1 9.6 1 13 C7.6 13 14.2 13 21 13 C21 9.7 21 6.4 21 3 C14.4 3 7.8 3 1 3 Z M9 20 C13 21 13 21 13 21 Z M1 22 C0.67 22.66 0.34 23.32 0 24 C1.65 23.67 3.3 23.34 5 23 C3.68 22.67 2.36 22.34 1 22 Z M17 22 C18.485 22.99 18.485 22.99 20 24 C20.66 23.67 21.32 23.34 22 23 C20.35 22.67 18.7 22.34 17 22 Z M-4.125 26 C-4.74375 26.66 -5.3625 27.32 -6 28 C-5.67 28.66 -5.34 29.32 -5 30 C-3.35 28.02 -1.7 26.04 0 24 C-2.24362573 23.7715451 -2.24362573 23.7715451 -4.125 26 Z M23 25 C24.65 26.65 26.3 28.3 28 30 C27.20882096 28.00016466 27.20882096 28.00016466 26 26 C25.01 25.67 24.02 25.34 23 25 Z M-7 30 C-7.33 31.32 -7.66 32.64 -8 34 C-7.34 32.68 -6.68 31.36 -6 30 C-6.33 30 -6.66 30 -7 30 Z M28 30 C28.66 31.32 29.32 32.64 30 34 C29.67 32.68 29.34 31.36 29 30 C28.67 30 28.34 30 28 30 Z M3 36 C1.57337781 38.85324437 1.68966132 40.83454549 2 44 C4.08213913 47.74785043 5.2947039 48.79482295 9.4375 50 C13.40316899 50 14.93779521 49.44976383 18 47 C20.26517938 43.60223093 20.23027272 41.91105333 19.6015625 37.94140625 C18.59779043 34.70196004 16.92505866 33.56003129 14 32 C8.92115655 31.15352609 6.62901579 32.47467037 3 36 Z M-9 34 C-8 38 -8 38 -8 38 Z M30 35 C31 39 31 39 31 39 Z " fill="#FCFCFC" transform="translate(101,42)"/>
<path d="M0 0 C10.89 0 21.78 0 33 0 C32.67 0.99 32.34 1.98 32 3 C22.43 3 12.86 3 3 3 C3 17.19 3 31.38 3 46 C12.9 46 22.8 46 33 46 C33 46.99 33 47.98 33 49 C22.11 49 11.22 49 0 49 C0 32.83 0 16.66 0 0 Z " fill="#FCFCFC" transform="translate(62,57)"/>
<path d="M0 0 C4.29 0 8.58 0 13 0 C13.66 1.65 14.32 3.3 15 5 C15.66 3.35 16.32 1.7 17 0 C18.32 0 19.64 0 21 0 C20.40714189 5.63215208 18.84357449 11.08837133 16 16 C12.875 17.6875 12.875 17.6875 10 18 C9.34 17.67 8.68 17.34 8 17 C8.66 15.68 9.32 14.36 10 13 C10.66 13 11.32 13 12 13 C11.01 10.03 10.02 7.06 9 4 C7.35 4 5.7 4 4 4 C4 6.97 4 9.94 4 13 C2.68 13 1.36 13 0 13 C0 8.71 0 4.42 0 0 Z " fill="#FCFCFC" transform="translate(152,122)"/>
<path d="M0 0 C0 4.95 0 9.9 0 15 C0.66 15 1.32 15 2 15 C2 10.38 2 5.76 2 1 C3.65 0.67 5.3 0.34 7 0 C7.06058594 1.03640625 7.12117187 2.0728125 7.18359375 3.140625 C7.26803371 4.51042873 7.35267997 5.88021975 7.4375 7.25 C7.47681641 7.93191406 7.51613281 8.61382812 7.55664062 9.31640625 C7.76666472 12.64448041 8.01934002 15.80255402 9 19 C6.66666667 19 4.33333333 19 2 19 C0.7625 19.0928125 0.7625 19.0928125 -0.5 19.1875 C-1.325 19.125625 -2.15 19.06375 -3 19 C-5.45391569 15.31912647 -5.22802759 12.55644412 -5.125 8.3125 C-5.11597656 7.61060547 -5.10695313 6.90871094 -5.09765625 6.18554688 C-5.07413704 4.45688475 -5.03826713 2.72839855 -5 1 C-3 0 -3 0 0 0 Z " fill="#FDFDFD" transform="translate(129,116)"/>
<path d="M0 0 C0.33 0.99 0.66 1.98 1 3 C-1 5 -1 5 -4.125 5.125 C-5.07375 5.08375 -6.0225 5.0425 -7 5 C-8.00217064 8.58327753 -8.00217064 8.58327753 -7 12 C-4.97536745 12.65213292 -4.97536745 12.65213292 -3 13 C-3.33 11.35 -3.66 9.7 -4 8 C-2.35 8 -0.7 8 1 8 C1 10.97 1 13.94 1 17 C-8.02251656 17.61986755 -8.02251656 17.61986755 -11.5625 15.375 C-13.3457723 12.42872403 -13.92955543 10.45178406 -14 7 C-11.20099032 0.31347688 -6.91887855 -1.76994567 0 0 Z " fill="#FDFDFD" transform="translate(109,118)"/>
<path d="M0 0 C8.21766784 -0.36254417 8.21766784 -0.36254417 11.5625 1.1875 C13 3 13 3 13.4375 5.5 C13 8 13 8 11.875 9.75 C9.34022139 11.43985241 6.99424517 11.66730609 4 12 C4 13.65 4 15.3 4 17 C2.68 17 1.36 17 0 17 C0 11.39 0 5.78 0 0 Z M4 4 C4 5.32 4 6.64 4 8 C5.32 7.67 6.64 7.34 8 7 C7.67 6.01 7.34 5.02 7 4 C6.01 4 5.02 4 4 4 Z " fill="#FDFDFD" transform="translate(27,118)"/>
<path d="M0 0 C0.99 0 1.98 0 3 0 C3 1.98 3 3.96 3 6 C3.99 5.67 4.98 5.34 6 5 C8.140625 6.11328125 8.140625 6.11328125 10 8 C10.609375 10.48046875 10.609375 10.48046875 10.75 13.1875 C10.80671875 14.08855469 10.8634375 14.98960937 10.921875 15.91796875 C10.96054687 16.94857422 10.96054687 16.94857422 11 18 C9.35 18.33 7.7 18.66 6 19 C6 16.03 6 13.06 6 10 C5.01 10 4.02 10 3 10 C3 12.97 3 15.94 3 19 C1.68 19 0.36 19 -1 19 C-1.02683987 16.02077407 -1.04676037 13.04178705 -1.0625 10.0625 C-1.07087891 9.21236328 -1.07925781 8.36222656 -1.08789062 7.48632812 C-1.09111328 6.67744141 -1.09433594 5.86855469 -1.09765625 5.03515625 C-1.10289307 4.2862915 -1.10812988 3.53742676 -1.11352539 2.76586914 C-1 1 -1 1 0 0 Z " fill="#FBFBFB" transform="translate(42,116)"/>
<path d="M0 0 C6.97674419 -0.7751938 6.97674419 -0.7751938 10.0625 1.5625 C11.39274773 5.0211441 10.85607025 7.4440159 10 11 C8 13 8 13 4.0625 13.4375 C1.9140625 13.3828125 1.9140625 13.3828125 0 13 C-2.0625 10.8125 -2.0625 10.8125 -3 8 C-2.74756206 4.4658688 -1.99789249 2.99683874 0 0 Z M3 4 C2.67 5.32 2.34 6.64 2 8 C3.32 8.33 4.64 8.66 6 9 C6 7.35 6 5.7 6 4 C5.01 4 4.02 4 3 4 Z " fill="#FCFCFC" transform="translate(56,122)"/>
<path d="M0 0 C2 3 2 3 1.75 6.5625 C1 10 1 10 -1 12 C-7.00458716 12.54587156 -7.00458716 12.54587156 -9.9375 10.9375 C-11.5957539 7.91362524 -11.30144019 5.37613017 -11 2 C-7.67085721 -2.99371418 -5.0918279 -2.16673528 0 0 Z M-6 3 C-6.33 4.32 -6.66 5.64 -7 7 C-5.68 7.33 -4.36 7.66 -3 8 C-3 6.35 -3 4.7 -3 3 C-3.99 3 -4.98 3 -6 3 Z " fill="#FDFDFD" transform="translate(88,123)"/>
<path d="M0 0 C2 2 2 2 2.1875 4.8125 C2.02065367 7.64888758 1.64955894 10.23937449 1 13 C-6.32215357 13.36010591 -6.32215357 13.36010591 -9 11.9375 C-10.58433618 8.86784865 -10.36248449 6.38318857 -10 3 C-7.77611809 -1.05531408 -4.20231132 -0.3820283 0 0 Z M-5 3 C-5.33 3.66 -5.66 4.32 -6 5 C-4.68 4.67 -3.36 4.34 -2 4 C-2.99 3.67 -3.98 3.34 -5 3 Z " fill="#FBFBFB" transform="translate(148,122)"/>
<path d="M0 0 C1.45792884 -0.05399736 2.91642712 -0.09279177 4.375 -0.125 C5.18710938 -0.14820312 5.99921875 -0.17140625 6.8359375 -0.1953125 C9 0 9 0 11 2 C11.1953125 4.6015625 11.1953125 4.6015625 11.125 7.625 C11.10695313 8.62789062 11.08890625 9.63078125 11.0703125 10.6640625 C11.03550781 11.82035156 11.03550781 11.82035156 11 13 C7.7 13 4.4 13 1 13 C-0.125 10.75 -0.125 10.75 -1 8 C-0.0625 5.9375 -0.0625 5.9375 1 4 C0.605045 1.9039327 0.605045 1.9039327 0 0 Z M3 3 C4.98 3.99 4.98 3.99 7 5 C6.67 4.34 6.34 3.68 6 3 C5.01 3 4.02 3 3 3 Z M4 8 C4.33 8.66 4.66 9.32 5 10 C5.66 10 6.32 10 7 10 C7 9.34 7 8.68 7 8 C6.01 8 5.02 8 4 8 Z " fill="#FDFDFD" transform="translate(112,122)"/>
<path d="M0 0 C0 1.32 0 2.64 0 4 C1.32 4 2.64 4 4 4 C4 5.32 4 6.64 4 8 C2.68 8 1.36 8 0 8 C0 9.65 0 11.3 0 13 C1.32 13 2.64 13 4 13 C4.33 14.32 4.66 15.64 5 17 C1.625 17.125 1.625 17.125 -2 17 C-4.77042109 14.22957891 -4.39796106 12.23466195 -4.625 8.375 C-4.69976562 7.18648438 -4.77453125 5.99796875 -4.8515625 4.7734375 C-4.90054688 3.85820313 -4.94953125 2.94296875 -5 2 C-2 0 -2 0 0 0 Z " fill="#FCFCFC" transform="translate(72,118)"/>
</svg>
