<?xml version="1.0" encoding="UTF-8"?>
<svg version="1.1" xmlns="http://www.w3.org/2000/svg" width="150" height="103">
<path d="M0 0 C49.5 0 99 0 150 0 C150 33.99 150 67.98 150 103 C100.5 103 51 103 0 103 C0 69.01 0 35.02 0 0 Z " fill="#030303" transform="translate(0,0)"/>
<path d="M0 0 C1.35726196 0.00616333 1.35726196 0.00616333 2.74194336 0.01245117 C3.72356445 0.01438477 4.70518555 0.01631836 5.71655273 0.01831055 C6.74458008 0.03055664 7.77260742 0.04280273 8.83178711 0.05541992 C9.86368164 0.05606445 10.89557617 0.05670898 11.95874023 0.05737305 C19.62912714 0.10275995 19.62912714 0.10275995 20.76928711 1.24291992 C20.84172764 3.26256191 20.85305899 5.28459116 20.83178711 7.30541992 C20.82276367 8.41014648 20.81374023 9.51487305 20.80444336 10.65307617 C20.7928418 11.50772461 20.78124023 12.36237305 20.76928711 13.24291992 C18.36383073 14.44564811 16.81931758 14.34363464 14.14428711 14.30541992 C12.91838867 14.29188477 12.91838867 14.29188477 11.66772461 14.27807617 C10.72799805 14.26067383 10.72799805 14.26067383 9.76928711 14.24291992 C9.76928711 14.90291992 9.76928711 15.56291992 9.76928711 16.24291992 C10.80053711 16.34604492 11.83178711 16.44916992 12.89428711 16.55541992 C19.12564342 17.66098314 24.53753169 20.45247769 28.76928711 25.24291992 C32.06510206 30.56301627 33.95132873 35.99839701 32.76928711 42.24291992 C30.28949122 50.13317956 26.35607136 54.9588526 19.14428711 59.05541992 C12.70716865 62.06386549 6.90832814 62.5076269 0.09741211 60.42651367 C-6.40037968 57.60095876 -10.66370127 53.34065539 -14.23071289 47.24291992 C-16.19290735 41.3909635 -16.20846483 34.63792423 -13.66821289 28.99291992 C-9.92572494 22.46992155 -4.25722745 18.58509144 2.76928711 16.24291992 C5.70678711 16.05541992 5.70678711 16.05541992 7.76928711 16.24291992 C7.76928711 15.58291992 7.76928711 14.92291992 7.76928711 14.24291992 C7.07061523 14.27772461 6.37194336 14.3125293 5.65209961 14.34838867 C4.28698242 14.38899414 4.28698242 14.38899414 2.89428711 14.43041992 C1.98936523 14.46522461 1.08444336 14.5000293 0.15209961 14.53588867 C-1.02739258 14.39086914 -1.02739258 14.39086914 -2.23071289 14.24291992 C-4.32012157 11.1088069 -4.50435701 10.26841521 -4.48071289 6.68041992 C-4.48586914 5.89538086 -4.49102539 5.1103418 -4.49633789 4.30151367 C-4.10135297 1.2403805 -3.03668583 0.33068867 0 0 Z " fill="#F7F7F7" transform="translate(78.230712890625,2.757080078125)"/>
<path d="M0 0 C1.35726196 0.00616333 1.35726196 0.00616333 2.74194336 0.01245117 C3.72356445 0.01438477 4.70518555 0.01631836 5.71655273 0.01831055 C6.74458008 0.03055664 7.77260742 0.04280273 8.83178711 0.05541992 C9.86368164 0.05606445 10.89557617 0.05670898 11.95874023 0.05737305 C19.62912714 0.10275995 19.62912714 0.10275995 20.76928711 1.24291992 C20.84172764 3.26256191 20.85305899 5.28459116 20.83178711 7.30541992 C20.82276367 8.41014648 20.81374023 9.51487305 20.80444336 10.65307617 C20.7928418 11.50772461 20.78124023 12.36237305 20.76928711 13.24291992 C18.36383073 14.44564811 16.81931758 14.34363464 14.14428711 14.30541992 C12.91838867 14.29188477 12.91838867 14.29188477 11.66772461 14.27807617 C10.72799805 14.26067383 10.72799805 14.26067383 9.76928711 14.24291992 C9.76928711 14.90291992 9.76928711 15.56291992 9.76928711 16.24291992 C10.80053711 16.34604492 11.83178711 16.44916992 12.89428711 16.55541992 C19.12564342 17.66098314 24.53753169 20.45247769 28.76928711 25.24291992 C32.23731444 30.84100108 33.49358463 35.7242422 32.76928711 42.24291992 C31.93506333 45.02207686 30.9160084 47.56723691 29.76928711 50.24291992 C29.43928711 49.58291992 29.10928711 48.92291992 28.76928711 48.24291992 C28.10928711 48.24291992 27.44928711 48.24291992 26.76928711 48.24291992 C26.43928711 49.23291992 26.10928711 50.22291992 25.76928711 51.24291992 C25.43928711 50.58291992 25.10928711 49.92291992 24.76928711 49.24291992 C25.07866211 48.56229492 25.38803711 47.88166992 25.70678711 47.18041992 C27.70688037 41.65075032 27.55807798 36.33939806 25.20678711 30.93041992 C22.87360221 26.73235964 20.06793438 25.2330344 15.76928711 23.24291992 C15.10928711 22.91291992 14.44928711 22.58291992 13.76928711 22.24291992 C7.04428418 21.48041959 1.2116232 21.98317571 -4.23071289 26.24291992 C-8.25502342 30.40431159 -9.52891609 34.24083991 -9.60571289 39.99291992 C-9.48584136 43.22023034 -9.11611064 46.13677044 -8.23071289 49.24291992 C-11.56029237 46.64311128 -11.84833001 44.13227437 -12.41821289 40.05541992 C-12.65604492 38.42540039 -12.65604492 38.42540039 -12.89868164 36.76245117 C-13.00825195 35.93100586 -13.11782227 35.09956055 -13.23071289 34.24291992 C-13.89071289 35.23291992 -14.55071289 36.22291992 -15.23071289 37.24291992 C-14.9610659 30.77139203 -12.7172056 26.88512604 -8.23071289 22.24291992 C-3.17480817 18.02097887 1.24441581 16.5924666 7.76928711 16.24291992 C7.76928711 15.58291992 7.76928711 14.92291992 7.76928711 14.24291992 C7.07061523 14.27772461 6.37194336 14.3125293 5.65209961 14.34838867 C4.28698242 14.38899414 4.28698242 14.38899414 2.89428711 14.43041992 C1.98936523 14.46522461 1.08444336 14.5000293 0.15209961 14.53588867 C-1.02739258 14.39086914 -1.02739258 14.39086914 -2.23071289 14.24291992 C-4.32012157 11.1088069 -4.50435701 10.26841521 -4.48071289 6.68041992 C-4.48586914 5.89538086 -4.49102539 5.1103418 -4.49633789 4.30151367 C-4.10135297 1.2403805 -3.03668583 0.33068867 0 0 Z " fill="#D2D2D2" transform="translate(78.230712890625,2.757080078125)"/>
<path d="M0 0 C3 2.0625 3 2.0625 5 5 C5.57167363 9.00171543 5.36938628 11.22764686 3.625 14.875 C1.79855318 17.26343045 0.92739279 17.87467665 -2.0234375 18.2734375 C-8.28092052 18.54369424 -8.28092052 18.54369424 -11.5625 16.0625 C-13.49929137 11.9362923 -13.94389305 8.47722721 -13 4 C-9.57590718 -0.38711892 -5.26732839 -1.21063596 0 0 Z " fill="#080808" transform="translate(91,34)"/>
<path d="M0 0 C0.83265381 0.00523682 1.66530762 0.01047363 2.52319336 0.01586914 C3.42231445 0.0190918 4.32143555 0.02231445 5.24780273 0.02563477 C6.66609375 0.03820312 6.66609375 0.03820312 8.11303711 0.05102539 C9.06243164 0.05553711 10.01182617 0.06004883 10.98999023 0.06469727 C13.34353242 0.07652411 15.69704243 0.09446018 18.05053711 0.11352539 C18.05053711 3.74352539 18.05053711 7.37352539 18.05053711 11.11352539 C11.12053711 11.11352539 4.19053711 11.11352539 -2.94946289 11.11352539 C-2.94946289 0.17175958 -2.94946289 0.17175958 0 0 Z " fill="#090909" transform="translate(78.949462890625,3.886474609375)"/>
<path d="M0 0 C10.56 0 21.12 0 32 0 C32 0.66 32 1.32 32 2 C22.1 2 12.2 2 2 2 C2 16.85 2 31.7 2 47 C11.9 47 21.8 47 32 47 C32 47.66 32 48.32 32 49 C21.44 49 10.88 49 0 49 C0 32.83 0 16.66 0 0 Z " fill="#D3D3D3" transform="translate(38,17)"/>
<path d="M0 0 C8 0 8 0 10.5 1.125 C12 3 12 3 12.4375 6.0625 C12.293125 7.031875 12.14875 8.00125 12 9 C8.77208445 11.1519437 7.71599191 11.20086443 4 11 C4 12.98 4 14.96 4 17 C2.68 17 1.36 17 0 17 C0 11.39 0 5.78 0 0 Z " fill="#EAEAEA" transform="translate(2,78)"/>
<path d="M0 0 C4.81574501 3.97676504 8.31107939 7.84849475 9.125 14.1875 C9.22964943 18.133399 8.62714361 21.36285545 7 25 C6.03412493 22.10237478 5.99435019 20.76194987 6.1875 17.8125 C6.22018113 12.79594724 5.10868818 8.98272515 2 5 C-0.27175421 3.24938317 -2.36439134 2.2201892 -5 1 C-5.66 0.67 -6.32 0.34 -7 0 C-13.72500293 -0.76250033 -19.55766391 -0.25974421 -25 4 C-29.02431053 8.16139166 -30.2982032 11.99791999 -30.375 17.75 C-30.25512847 20.97731042 -29.88539775 23.89385052 -29 27 C-32.64864547 23.82726481 -32.89345923 21.41166515 -33.25 16.6875 C-32.78178252 9.78129212 -30.13130902 5.50553963 -25 1 C-18.15380288 -4.80889452 -7.54329774 -4.64430488 0 0 Z " fill="#353535" transform="translate(99,25)"/>
<path d="M0 0 C0.33 1.32 0.66 2.64 1 4 C-0.134375 3.979375 -1.26875 3.95875 -2.4375 3.9375 C-5.81575674 3.58422523 -5.81575674 3.58422523 -7 5 C-7.24733137 9.14276875 -7.24733137 9.14276875 -6 13 C-3.97536745 13.65213292 -3.97536745 13.65213292 -2 14 C-2 12.02 -2 10.04 -2 8 C-0.68 8 0.64 8 2 8 C2 10.97 2 13.94 2 17 C-7.01470128 17.77416328 -7.01470128 17.77416328 -10.625 14.9375 C-12.36064272 11.22953601 -12.65097682 9.05052242 -12 5 C-8.52254958 0.04726758 -5.9082216 -0.57923741 0 0 Z " fill="#E0E0E0" transform="translate(83,78)"/>
<path d="M0 0 C1.875 1.0625 1.875 1.0625 3 3 C3.63316583 8.90954774 3.63316583 8.90954774 1.875 11.9375 C-0.92162472 13.52225401 -2.8493196 13.45947423 -6 13 C-8.59814888 10.74827097 -8.95716454 9.34982295 -9.375 5.9375 C-9 3 -9 3 -7.875 1.125 C-5.11909116 -0.52854531 -3.14924548 -0.39365568 0 0 Z " fill="#DADADA" transform="translate(38,82)"/>
<path d="M0 0 C1.32 0 2.64 0 4 0 C4 1.65 4 3.3 4 5 C4.78375 4.95875 5.5675 4.9175 6.375 4.875 C9 5 9 5 11 7 C11.1953125 9.6015625 11.1953125 9.6015625 11.125 12.625 C11.10695313 13.62789062 11.08890625 14.63078125 11.0703125 15.6640625 C11.03550781 16.82035156 11.03550781 16.82035156 11 18 C9.68 18 8.36 18 7 18 C7 14.7 7 11.4 7 8 C6.01 8 5.02 8 4 8 C4 11.3 4 14.6 4 18 C2.68 18 1.36 18 0 18 C0 12.06 0 6.12 0 0 Z " fill="#D5D5D5" transform="translate(16,77)"/>
<path d="M0 0 C3.0625 0.3125 3.0625 0.3125 4.9375 1.5 C6.41031139 3.87286279 6.28473194 5.57163944 6.0625 8.3125 C3.7525 8.6425 1.4425 8.9725 -0.9375 9.3125 C2.0325 9.8075 2.0325 9.8075 5.0625 10.3125 C5.0625 11.3025 5.0625 12.2925 5.0625 13.3125 C-0.9921875 13.5078125 -0.9921875 13.5078125 -2.9375 13.3125 C-4.9375 11.3125 -4.9375 11.3125 -5.203125 9.21875 C-5.19539063 8.02765625 -5.19539063 8.02765625 -5.1875 6.8125 C-5.19265625 6.0184375 -5.1978125 5.224375 -5.203125 4.40625 C-4.75316487 0.85950548 -3.40966399 0.36273021 0 0 Z " fill="#BFBFBF" transform="translate(118.9375,81.6875)"/>
<path d="M0 0 C3.375 -0.125 3.375 -0.125 7 0 C9 2 9 2 9.1953125 4.6015625 C9.17210938 5.59929687 9.14890625 6.59703125 9.125 7.625 C9.10695313 8.62789062 9.08890625 9.63078125 9.0703125 10.6640625 C9.03550781 11.82035156 9.03550781 11.82035156 9 13 C2.9453125 13.1953125 2.9453125 13.1953125 1 13 C0.34 12.34 -0.32 11.68 -1 11 C-0.625 7.875 -0.625 7.875 0 5 C1.98 5 3.96 5 6 5 C6 4.34 6 3.68 6 3 C4.02 3 2.04 3 0 3 C0 2.01 0 1.02 0 0 Z " fill="#ECECEC" transform="translate(88,82)"/>
<path d="M0 0 C1.32 0 2.64 0 4 0 C4.66 2.31 5.32 4.62 6 7 C6.66 4.69 7.32 2.38 8 0 C9.32 0 10.64 0 12 0 C11.37469224 3.59068478 10.41818571 6.80595942 9.0625 10.1875 C8.72347656 11.04730469 8.38445312 11.90710938 8.03515625 12.79296875 C7 15 7 15 5 17 C2.375 17.125 2.375 17.125 0 17 C0 16.01 0 15.02 0 14 C1.32 14 2.64 14 4 14 C3.71125 13.15695313 3.4225 12.31390625 3.125 11.4453125 C2.75375 10.34960938 2.3825 9.25390625 2 8.125 C1.62875 7.03445312 1.2575 5.94390625 0.875 4.8203125 C0 2 0 2 0 0 Z " fill="#E1E1E1" transform="translate(136,82)"/>
<path d="M0 0 C1.32 0 2.64 0 4 0 C4 0.99 4 1.98 4 3 C5.32 3 6.64 3 8 3 C8 3.99 8 4.98 8 6 C6.68 6 5.36 6 4 6 C4 8.31 4 10.62 4 13 C5.32 13 6.64 13 8 13 C8 13.99 8 14.98 8 16 C5.125 16.125 5.125 16.125 2 16 C0 14 0 14 -0.1953125 10.7421875 C-0.17210937 9.46601562 -0.14890625 8.18984375 -0.125 6.875 C-0.10695312 5.59367187 -0.08890625 4.31234375 -0.0703125 2.9921875 C-0.04710937 2.00476563 -0.02390625 1.01734375 0 0 Z " fill="#DDDDDD" transform="translate(43,79)"/>
<path d="M0 0 C0.33 0.66 0.66 1.32 1 2 C-0.0725 2.45375 -1.145 2.9075 -2.25 3.375 C-2.88808594 3.6534375 -3.52617188 3.931875 -4.18359375 4.21875 C-5.54583854 4.80466174 -6.92556053 5.35021209 -8.3125 5.875 C-10.74063275 7.49375516 -11.10905952 9.26353995 -12 12 C-13 14.5 -13 14.5 -14 17 C-14.66 16.67 -15.32 16.34 -16 16 C-16.66 16.99 -17.32 17.98 -18 19 C-17.73088228 12.54117467 -15.49654419 8.62198426 -11 4 C-4.22401334 -1.40800445 -4.22401334 -1.40800445 0 0 Z " fill="#E0E0E0" transform="translate(81,21)"/>
<path d="M0 0 C0.33 6.27 0.66 12.54 1 19 C-3 18 -3 18 -4 17 C-4.07319621 14.30345146 -4.09242537 11.63308542 -4.0625 8.9375 C-4.05798828 8.17888672 -4.05347656 7.42027344 -4.04882812 6.63867188 C-4.0370068 4.75908129 -4.01907078 2.87953101 -4 1 C-2 0 -2 0 0 0 Z " fill="#D9D9D9" transform="translate(104,76)"/>
<path d="M0 0 C2.375 -0.125 2.375 -0.125 5 0 C7 2 7 2 7.3125 5.4375 C7 9 7 9 5.875 10.9375 C3.15050101 12.48138276 1.07108055 12.3267107 -2 12 C-4 10 -4 10 -4.125 6.875 C-4.08375 5.92625 -4.0425 4.9775 -4 4 C-3.34 3.67 -2.68 3.34 -2 3 C-1.5978125 4.2065625 -1.5978125 4.2065625 -1.1875 5.4375 C-0.795625 6.283125 -0.40375 7.12875 0 8 C0.99 8.33 1.98 8.66 3 9 C2.67039784 3.98464948 2.67039784 3.98464948 0 0 Z " fill="#F3F3F3" transform="translate(57,83)"/>
<path d="M0 0 C2.64 0 5.28 0 8 0 C8 0.99 8 1.98 8 3 C6.68 3 5.36 3 4 3 C4 6.3 4 9.6 4 13 C2.68 13 1.36 13 0 13 C0 8.71 0 4.42 0 0 Z " fill="#FEFEFE" transform="translate(127,82)"/>
<path d="M0 0 C5.94 0 11.88 0 18 0 C18 0.33 18 0.66 18 1 C15.36 1 12.72 1 10 1 C10 1.66 10 2.32 10 3 C12.31 3.33 14.62 3.66 17 4 C17 4.66 17 5.32 17 6 C12.05 6 7.1 6 2 6 C2.33 5.01 2.66 4.02 3 3 C4.65 3 6.3 3 8 3 C8 2.34 8 1.68 8 1 C5.36 1 2.72 1 0 1 C0 0.67 0 0.34 0 0 Z " fill="#ECECEC" transform="translate(78,16)"/>
<path d="M0 0 C-0.66 0.66 -1.32 1.32 -2 2 C-1.01 3.485 -1.01 3.485 0 5 C-0.375 7.6875 -0.375 7.6875 -1 10 C-2.875 9.75 -2.875 9.75 -5 9 C-6.25 6.9375 -6.25 6.9375 -7 5 C-7.66 6.32 -8.32 7.64 -9 9 C-9.36 3.6 -9.36 3.6 -7.875 1.125 C-5.21965017 -0.4682099 -3.03210482 -0.20214032 0 0 Z " fill="#CBCBCB" transform="translate(61,82)"/>
<path d="M0 0 C0.99 0 1.98 0 3 0 C3.06058594 0.96421875 3.12117188 1.9284375 3.18359375 2.921875 C3.26738281 4.18515625 3.35117188 5.4484375 3.4375 6.75 C3.55931641 8.62945312 3.55931641 8.62945312 3.68359375 10.546875 C3.92515522 13.18317553 4.24283934 15.48037294 5 18 C1.125 17.125 1.125 17.125 0 16 C-0.07319621 13.30345146 -0.09242537 10.63308542 -0.0625 7.9375 C-0.05798828 7.17888672 -0.05347656 6.42027344 -0.04882812 5.63867188 C-0.0370068 3.75908129 -0.01907078 1.87953101 0 0 Z " fill="#EFEFEF" transform="translate(107,77)"/>
<path d="M0 0 C0 3.63 0 7.26 0 11 C-1.32 11 -2.64 11 -4 11 C-4 7.7 -4 4.4 -4 1 C-4.99 0.67 -5.98 0.34 -7 0 C-4 -1 -4 -1 0 0 Z " fill="#CFCFCF" transform="translate(27,84)"/>
<path d="M0 0 C2.375 -0.125 2.375 -0.125 5 0 C7 2 7 2 7.25 5.5 C7 9 7 9 5 11 C2.875 10.625 2.875 10.625 1 10 C1.33 9.34 1.66 8.68 2 8 C2.25 5 2.25 5 2 2 C1.34 1.34 0.68 0.68 0 0 Z " fill="#E6E6E6" transform="translate(34,83)"/>
<path d="M0 0 C3.0625 0.1875 3.0625 0.1875 5.0625 2.1875 C5.1875 4.8125 5.1875 4.8125 5.0625 7.1875 C2.7525 7.1875 0.4425 7.1875 -1.9375 7.1875 C-1.9375 6.8575 -1.9375 6.5275 -1.9375 6.1875 C-0.2875 6.1875 1.3625 6.1875 3.0625 6.1875 C2.7325 5.5275 2.4025 4.8675 2.0625 4.1875 C-0.2475 4.5175 -2.5575 4.8475 -4.9375 5.1875 C-3.82120474 0.24390669 -3.82120474 0.24390669 0 0 Z " fill="#E9E9E9" transform="translate(118.9375,81.8125)"/>
<path d="M0 0 C1.65 0 3.3 0 5 0 C5 2.64 5 5.28 5 8 C3.35 7.67 1.7 7.34 0 7 C0 4.69 0 2.38 0 0 Z " fill="#0E0E0E" transform="translate(47,85)"/>
<path d="M0 0 C0.33 0.99 0.66 1.98 1 3 C-0.3125 4.9375 -0.3125 4.9375 -2 7 C-2.69580267 8.31836295 -3.37224433 9.64791086 -4 11 C-4.33 10.67 -4.66 10.34 -5 10 C-5.66 10.99 -6.32 11.98 -7 13 C-6.74126898 8.60157266 -6.43893111 6.50477078 -3.5 3.125 C-2.2625 2.073125 -2.2625 2.073125 -1 1 C-0.67 0.67 -0.34 0.34 0 0 Z " fill="#D7D7D7" transform="translate(70,27)"/>
<path d="M0 0 C0 1.32 0 2.64 0 4 C0.99 4.66 1.98 5.32 3 6 C0.36 6 -2.28 6 -5 6 C-5.66 4.68 -6.32 3.36 -7 2 C-4.35261084 0.5393715 -3.10551666 0 0 0 Z " fill="#A1A1A1" transform="translate(94,89)"/>
<path d="M0 0 C0.33 0 0.66 0 1 0 C1.33 3.96 1.66 7.92 2 12 C1.34 12 0.68 12 0 12 C-0.33 12.66 -0.66 13.32 -1 14 C-1.22331199 12.41870971 -1.42804644 10.83478911 -1.625 9.25 C-1.74101563 8.36828125 -1.85703125 7.4865625 -1.9765625 6.578125 C-2.00207817 3.77140122 -1.44843844 2.36615134 0 0 Z " fill="#E9E9E9" transform="translate(65,36)"/>
<path d="M0 0 C1.32 0 2.64 0 4 0 C4 2.64 4 5.28 4 8 C2.35 8 0.7 8 -1 8 C-0.67 5.36 -0.34 2.72 0 0 Z " fill="#F3F3F3" transform="translate(81,86)"/>
<path d="M0 0 C2.64 0 5.28 0 8 0 C8 0.99 8 1.98 8 3 C6.68 3 5.36 3 4 3 C4 6.3 4 9.6 4 13 C2.68 12.67 1.36 12.34 0 12 C0.99 12 1.98 12 3 12 C3 8.37 3 4.74 3 1 C2.01 0.67 1.02 0.34 0 0 Z " fill="#B2B2B2" transform="translate(127,82)"/>
<path d="M0 0 C0.3403125 0.8353125 0.3403125 0.8353125 0.6875 1.6875 C2.35896766 4.63246684 4.55276352 6.68156544 7 9 C4.125 9.125 4.125 9.125 1 9 C-1 7 -1 7 -1.1875 3.9375 C-1 1 -1 1 0 0 Z " fill="#E2E2E2" transform="translate(54,86)"/>
<path d="M0 0 C0.99 0 1.98 0 3 0 C4.125 4.75 4.125 4.75 3 7 C1.68 6.67 0.36 6.34 -1 6 C-1.042721 4.33388095 -1.04063832 2.66617115 -1 1 C-0.67 0.67 -0.34 0.34 0 0 Z " fill="#1E1E1E" transform="translate(57,85)"/>
<path d="M0 0 C0.99 0 1.98 0 3 0 C3 1.98 3 3.96 3 6 C1.68 6 0.36 6 -1 6 C-1.042721 4.33388095 -1.04063832 2.66617115 -1 1 C-0.67 0.67 -0.34 0.34 0 0 Z " fill="#111111" transform="translate(34,85)"/>
<path d="M0 0 C2.475 0.495 2.475 0.495 5 1 C4.67 2.32 4.34 3.64 4 5 C2.68 5 1.36 5 0 5 C0 3.35 0 1.7 0 0 Z " fill="#2E2E2E" transform="translate(5,81)"/>
<path d="M0 0 C3.71162994 1.85581497 5.01775064 2.55714584 7 6 C6.67 6.99 6.34 7.98 6 9 C4.02 6.03 2.04 3.06 0 0 Z " fill="#141414" transform="translate(99,27)"/>
</svg>
